<mxfile host="app.diagrams.net" agent="Mozilla/5.0 (Windows NT 10.0; Win64; x64) AppleWebKit/537.36 (KHTML, like Gecko) Chrome/138.0.0.0 Safari/537.36" version="28.0.7">
  <diagram name="Page-1" id="YdJhQ94DfXjYVcB6rD1O">
    <mxGraphModel dx="906" dy="1564" grid="1" gridSize="10" guides="1" tooltips="1" connect="1" arrows="1" fold="1" page="1" pageScale="1" pageWidth="850" pageHeight="1100" math="0" shadow="0">
      <root>
        <mxCell id="0" />
        <mxCell id="1" parent="0" />
        <mxCell id="HBeFF_DBmeF8vQMZBcUN-8" value="" style="rounded=0;whiteSpace=wrap;html=1;fillColor=none;strokeWidth=2;" vertex="1" parent="1">
          <mxGeometry x="250" y="-20" width="500" height="530" as="geometry" />
        </mxCell>
        <mxCell id="HBeFF_DBmeF8vQMZBcUN-7" style="rounded=0;orthogonalLoop=1;jettySize=auto;html=1;exitX=1;exitY=0.3333333333333333;exitDx=0;exitDy=0;exitPerimeter=0;entryX=0;entryY=0.5;entryDx=0;entryDy=0;endArrow=none;endFill=0;" edge="1" parent="1" source="n5SG_XCMADbBDUx8Y0AR-1" target="n5SG_XCMADbBDUx8Y0AR-4">
          <mxGeometry relative="1" as="geometry" />
        </mxCell>
        <mxCell id="HBeFF_DBmeF8vQMZBcUN-11" style="rounded=0;orthogonalLoop=1;jettySize=auto;html=1;exitX=1;exitY=0.3333333333333333;exitDx=0;exitDy=0;exitPerimeter=0;entryX=0;entryY=0.5;entryDx=0;entryDy=0;endArrow=none;endFill=0;" edge="1" parent="1" source="n5SG_XCMADbBDUx8Y0AR-1" target="n5SG_XCMADbBDUx8Y0AR-16">
          <mxGeometry relative="1" as="geometry" />
        </mxCell>
        <mxCell id="HBeFF_DBmeF8vQMZBcUN-29" style="rounded=0;orthogonalLoop=1;jettySize=auto;html=1;exitX=1;exitY=0.3333333333333333;exitDx=0;exitDy=0;exitPerimeter=0;entryX=0;entryY=0.5;entryDx=0;entryDy=0;endArrow=none;endFill=0;" edge="1" parent="1" source="n5SG_XCMADbBDUx8Y0AR-1" target="HBeFF_DBmeF8vQMZBcUN-22">
          <mxGeometry relative="1" as="geometry" />
        </mxCell>
        <mxCell id="HBeFF_DBmeF8vQMZBcUN-30" style="rounded=0;orthogonalLoop=1;jettySize=auto;html=1;exitX=1;exitY=0.3333333333333333;exitDx=0;exitDy=0;exitPerimeter=0;entryX=0;entryY=0.5;entryDx=0;entryDy=0;endArrow=none;endFill=0;" edge="1" parent="1" source="n5SG_XCMADbBDUx8Y0AR-1" target="HBeFF_DBmeF8vQMZBcUN-21">
          <mxGeometry relative="1" as="geometry" />
        </mxCell>
        <mxCell id="n5SG_XCMADbBDUx8Y0AR-1" value="Student" style="shape=umlActor;verticalLabelPosition=bottom;verticalAlign=top;html=1;strokeWidth=2;" parent="1" vertex="1">
          <mxGeometry x="150" y="180" width="30" height="60" as="geometry" />
        </mxCell>
        <mxCell id="HBeFF_DBmeF8vQMZBcUN-2" style="rounded=0;orthogonalLoop=1;jettySize=auto;html=1;exitX=0;exitY=0.3333333333333333;exitDx=0;exitDy=0;exitPerimeter=0;endArrow=none;endFill=0;" edge="1" parent="1" source="n5SG_XCMADbBDUx8Y0AR-2" target="HBeFF_DBmeF8vQMZBcUN-1">
          <mxGeometry relative="1" as="geometry" />
        </mxCell>
        <mxCell id="HBeFF_DBmeF8vQMZBcUN-6" style="rounded=0;orthogonalLoop=1;jettySize=auto;html=1;exitX=0;exitY=0.3333333333333333;exitDx=0;exitDy=0;exitPerimeter=0;entryX=1;entryY=0.5;entryDx=0;entryDy=0;endArrow=none;endFill=0;" edge="1" parent="1" source="n5SG_XCMADbBDUx8Y0AR-2" target="n5SG_XCMADbBDUx8Y0AR-12">
          <mxGeometry relative="1" as="geometry" />
        </mxCell>
        <mxCell id="n5SG_XCMADbBDUx8Y0AR-2" value="Admin" style="shape=umlActor;verticalLabelPosition=bottom;verticalAlign=top;html=1;strokeWidth=2;" parent="1" vertex="1">
          <mxGeometry x="830" y="180" width="30" height="60" as="geometry" />
        </mxCell>
        <mxCell id="n5SG_XCMADbBDUx8Y0AR-4" value="Log In" style="ellipse;whiteSpace=wrap;html=1;" parent="1" vertex="1">
          <mxGeometry x="330" y="30" width="75" height="50" as="geometry" />
        </mxCell>
        <mxCell id="n5SG_XCMADbBDUx8Y0AR-10" style="rounded=0;orthogonalLoop=1;jettySize=auto;html=1;exitX=0;exitY=0;exitDx=0;exitDy=0;entryX=0.5;entryY=1;entryDx=0;entryDy=0;endArrow=classic;endFill=1;dashed=1;" parent="1" source="n5SG_XCMADbBDUx8Y0AR-6" target="n5SG_XCMADbBDUx8Y0AR-4" edge="1">
          <mxGeometry relative="1" as="geometry" />
        </mxCell>
        <mxCell id="n5SG_XCMADbBDUx8Y0AR-11" value="Include" style="edgeLabel;html=1;align=center;verticalAlign=middle;resizable=0;points=[];" parent="n5SG_XCMADbBDUx8Y0AR-10" vertex="1" connectable="0">
          <mxGeometry x="0.1209" y="-2" relative="1" as="geometry">
            <mxPoint x="-2" y="11" as="offset" />
          </mxGeometry>
        </mxCell>
        <mxCell id="n5SG_XCMADbBDUx8Y0AR-14" style="edgeStyle=orthogonalEdgeStyle;rounded=0;orthogonalLoop=1;jettySize=auto;html=1;entryX=0;entryY=0.5;entryDx=0;entryDy=0;endArrow=none;endFill=0;startArrow=classic;startFill=1;dashed=1;" parent="1" source="n5SG_XCMADbBDUx8Y0AR-6" target="n5SG_XCMADbBDUx8Y0AR-12" edge="1">
          <mxGeometry relative="1" as="geometry" />
        </mxCell>
        <mxCell id="n5SG_XCMADbBDUx8Y0AR-15" value="Extend" style="edgeLabel;html=1;align=center;verticalAlign=middle;resizable=0;points=[];" parent="n5SG_XCMADbBDUx8Y0AR-14" vertex="1" connectable="0">
          <mxGeometry x="0.2376" y="-2" relative="1" as="geometry">
            <mxPoint x="-8" y="-2" as="offset" />
          </mxGeometry>
        </mxCell>
        <mxCell id="n5SG_XCMADbBDUx8Y0AR-6" value="Authenticate" style="ellipse;whiteSpace=wrap;html=1;" parent="1" vertex="1">
          <mxGeometry x="350" y="130" width="115" height="50" as="geometry" />
        </mxCell>
        <mxCell id="n5SG_XCMADbBDUx8Y0AR-12" value="View Logins" style="ellipse;whiteSpace=wrap;html=1;" parent="1" vertex="1">
          <mxGeometry x="580" y="130" width="140" height="50" as="geometry" />
        </mxCell>
        <mxCell id="n5SG_XCMADbBDUx8Y0AR-16" value="View history" style="ellipse;whiteSpace=wrap;html=1;" parent="1" vertex="1">
          <mxGeometry x="304.38" y="440" width="151.25" height="50" as="geometry" />
        </mxCell>
        <mxCell id="HBeFF_DBmeF8vQMZBcUN-1" value="Create Users" style="ellipse;whiteSpace=wrap;html=1;" vertex="1" parent="1">
          <mxGeometry x="580" y="200" width="140" height="50" as="geometry" />
        </mxCell>
        <mxCell id="HBeFF_DBmeF8vQMZBcUN-3" value="MODERN ACADEMY" style="text;html=1;align=center;verticalAlign=middle;resizable=0;points=[];autosize=1;strokeColor=default;fillColor=none;strokeWidth=2;" vertex="1" parent="1">
          <mxGeometry x="250" y="-20" width="140" height="30" as="geometry" />
        </mxCell>
        <mxCell id="HBeFF_DBmeF8vQMZBcUN-13" style="rounded=0;orthogonalLoop=1;jettySize=auto;html=1;exitX=0;exitY=0.5;exitDx=0;exitDy=0;entryX=1;entryY=0;entryDx=0;entryDy=0;dashed=1;" edge="1" parent="1" source="HBeFF_DBmeF8vQMZBcUN-12" target="n5SG_XCMADbBDUx8Y0AR-6">
          <mxGeometry relative="1" as="geometry" />
        </mxCell>
        <mxCell id="HBeFF_DBmeF8vQMZBcUN-14" value="include" style="edgeLabel;html=1;align=center;verticalAlign=middle;resizable=0;points=[];" vertex="1" connectable="0" parent="HBeFF_DBmeF8vQMZBcUN-13">
          <mxGeometry x="-0.0259" relative="1" as="geometry">
            <mxPoint x="1" as="offset" />
          </mxGeometry>
        </mxCell>
        <mxCell id="HBeFF_DBmeF8vQMZBcUN-12" value="Scan Database" style="ellipse;whiteSpace=wrap;html=1;" vertex="1" parent="1">
          <mxGeometry x="570" y="28.75" width="120" height="52.5" as="geometry" />
        </mxCell>
        <mxCell id="HBeFF_DBmeF8vQMZBcUN-15" style="edgeStyle=orthogonalEdgeStyle;rounded=0;orthogonalLoop=1;jettySize=auto;html=1;exitX=0.5;exitY=1;exitDx=0;exitDy=0;" edge="1" parent="1" source="HBeFF_DBmeF8vQMZBcUN-8" target="HBeFF_DBmeF8vQMZBcUN-8">
          <mxGeometry relative="1" as="geometry" />
        </mxCell>
        <mxCell id="HBeFF_DBmeF8vQMZBcUN-16" style="edgeStyle=orthogonalEdgeStyle;rounded=0;orthogonalLoop=1;jettySize=auto;html=1;exitX=0.5;exitY=1;exitDx=0;exitDy=0;" edge="1" parent="1" source="HBeFF_DBmeF8vQMZBcUN-8" target="HBeFF_DBmeF8vQMZBcUN-8">
          <mxGeometry relative="1" as="geometry" />
        </mxCell>
        <mxCell id="HBeFF_DBmeF8vQMZBcUN-31" style="rounded=0;orthogonalLoop=1;jettySize=auto;html=1;exitX=1;exitY=0.5;exitDx=0;exitDy=0;entryX=0;entryY=0.5;entryDx=0;entryDy=0;endArrow=none;endFill=0;startArrow=classic;startFill=1;dashed=1;" edge="1" parent="1" source="HBeFF_DBmeF8vQMZBcUN-22" target="HBeFF_DBmeF8vQMZBcUN-23">
          <mxGeometry relative="1" as="geometry" />
        </mxCell>
        <mxCell id="HBeFF_DBmeF8vQMZBcUN-32" value="&amp;nbsp;Extend&amp;nbsp;" style="edgeLabel;html=1;align=center;verticalAlign=middle;resizable=0;points=[];" vertex="1" connectable="0" parent="HBeFF_DBmeF8vQMZBcUN-31">
          <mxGeometry x="-0.0079" y="-1" relative="1" as="geometry">
            <mxPoint as="offset" />
          </mxGeometry>
        </mxCell>
        <mxCell id="HBeFF_DBmeF8vQMZBcUN-21" value="Perform Calculations" style="ellipse;whiteSpace=wrap;html=1;" vertex="1" parent="1">
          <mxGeometry x="298.75" y="210" width="162.5" height="50" as="geometry" />
        </mxCell>
        <mxCell id="HBeFF_DBmeF8vQMZBcUN-22" value="Perform Operations" style="ellipse;whiteSpace=wrap;html=1;" vertex="1" parent="1">
          <mxGeometry x="293.76" y="270" width="172.5" height="50" as="geometry" />
        </mxCell>
        <mxCell id="HBeFF_DBmeF8vQMZBcUN-23" value="Odd or Even" style="ellipse;whiteSpace=wrap;html=1;" vertex="1" parent="1">
          <mxGeometry x="550" y="270" width="170" height="50" as="geometry" />
        </mxCell>
        <mxCell id="HBeFF_DBmeF8vQMZBcUN-33" style="rounded=0;orthogonalLoop=1;jettySize=auto;html=1;exitX=0;exitY=0.5;exitDx=0;exitDy=0;entryX=0.953;entryY=0.716;entryDx=0;entryDy=0;dashed=1;entryPerimeter=0;" edge="1" parent="1" source="HBeFF_DBmeF8vQMZBcUN-24" target="HBeFF_DBmeF8vQMZBcUN-22">
          <mxGeometry relative="1" as="geometry" />
        </mxCell>
        <mxCell id="HBeFF_DBmeF8vQMZBcUN-34" value="&amp;nbsp;Extend&amp;nbsp;" style="edgeLabel;html=1;align=center;verticalAlign=middle;resizable=0;points=[];" vertex="1" connectable="0" parent="HBeFF_DBmeF8vQMZBcUN-33">
          <mxGeometry x="-0.0218" y="1" relative="1" as="geometry">
            <mxPoint as="offset" />
          </mxGeometry>
        </mxCell>
        <mxCell id="HBeFF_DBmeF8vQMZBcUN-24" value="Decimal Conversion" style="ellipse;whiteSpace=wrap;html=1;" vertex="1" parent="1">
          <mxGeometry x="550" y="340" width="170" height="50" as="geometry" />
        </mxCell>
        <mxCell id="HBeFF_DBmeF8vQMZBcUN-35" style="rounded=0;orthogonalLoop=1;jettySize=auto;html=1;exitX=0;exitY=0.5;exitDx=0;exitDy=0;entryX=1;entryY=1;entryDx=0;entryDy=0;dashed=1;" edge="1" parent="1" source="HBeFF_DBmeF8vQMZBcUN-25" target="HBeFF_DBmeF8vQMZBcUN-22">
          <mxGeometry relative="1" as="geometry" />
        </mxCell>
        <mxCell id="HBeFF_DBmeF8vQMZBcUN-36" value="&lt;br&gt;&lt;div&gt;Extend&lt;/div&gt;&lt;div&gt;&lt;br&gt;&lt;/div&gt;" style="edgeLabel;html=1;align=center;verticalAlign=middle;resizable=0;points=[];" vertex="1" connectable="0" parent="HBeFF_DBmeF8vQMZBcUN-35">
          <mxGeometry x="0.0383" y="-1" relative="1" as="geometry">
            <mxPoint as="offset" />
          </mxGeometry>
        </mxCell>
        <mxCell id="HBeFF_DBmeF8vQMZBcUN-25" value="Statistic Functions" style="ellipse;whiteSpace=wrap;html=1;" vertex="1" parent="1">
          <mxGeometry x="545" y="410" width="170" height="50" as="geometry" />
        </mxCell>
        <mxCell id="HBeFF_DBmeF8vQMZBcUN-27" value="" style="edgeStyle=orthogonalEdgeStyle;rounded=0;orthogonalLoop=1;jettySize=auto;html=1;dashed=1;" edge="1" parent="1" source="HBeFF_DBmeF8vQMZBcUN-26" target="HBeFF_DBmeF8vQMZBcUN-22">
          <mxGeometry relative="1" as="geometry" />
        </mxCell>
        <mxCell id="HBeFF_DBmeF8vQMZBcUN-28" value="Extend" style="edgeLabel;html=1;align=center;verticalAlign=middle;resizable=0;points=[];" vertex="1" connectable="0" parent="HBeFF_DBmeF8vQMZBcUN-27">
          <mxGeometry x="-0.249" y="-1" relative="1" as="geometry">
            <mxPoint y="-3" as="offset" />
          </mxGeometry>
        </mxCell>
        <mxCell id="HBeFF_DBmeF8vQMZBcUN-26" value="Fibonacci Series" style="ellipse;whiteSpace=wrap;html=1;" vertex="1" parent="1">
          <mxGeometry x="302.5" y="366" width="154.99" height="50" as="geometry" />
        </mxCell>
      </root>
    </mxGraphModel>
  </diagram>
</mxfile>
